<svg width="98" height="98" viewBox="0 0 98 98" fill="none" xmlns="http://www.w3.org/2000/svg">
<mask id="path-1-outside-1_4_112" maskUnits="userSpaceOnUse" x="0.794189" y="0.315216" width="98" height="98" fill="black">
<rect fill="white" x="0.794189" y="0.315216" width="98" height="98"/>
<path d="M91.4045 53.5967L90.1393 53.0725C89.0017 52.6013 88.3519 51.5853 88.401 50.355C88.4417 49.3378 88.442 48.307 88.4023 47.2914C88.3546 46.062 89.0045 45.0469 90.1415 44.5761L91.4041 44.053C93.5618 43.1595 95.2436 41.4754 96.1401 39.3113C97.0364 37.1473 97.0381 34.7674 96.1443 32.6099L93.8908 27.1694C92.9973 25.0119 91.313 23.3303 89.1491 22.4336C86.9851 21.5375 84.6052 21.5354 82.4474 22.4295L81.1842 22.9527C80.0474 23.4238 78.8703 23.1653 78.0351 22.2623C77.3444 21.5158 76.6152 20.7872 75.8674 20.0969C74.9626 19.2615 74.7037 18.0835 75.1752 16.9459L75.6989 15.6814C76.5926 13.524 76.5913 11.144 75.695 8.97973C74.7985 6.81579 73.1167 5.13174 70.9592 4.23803L65.5187 1.98446C61.0568 0.136913 55.9237 2.26263 54.0758 6.72412L53.5518 7.98897C53.0808 9.12652 52.0668 9.77657 50.8343 9.72721C49.817 9.68657 48.7861 9.68601 47.7701 9.72591C46.5443 9.77676 45.5257 9.12392 45.055 7.9873L44.5321 6.7243C43.6386 4.56686 41.9543 2.88522 39.7904 1.98854C37.6265 1.09242 35.2463 1.09056 33.0889 1.98427L27.6485 4.23784C23.1868 6.08613 21.0606 11.2196 22.9085 15.6809L23.4312 16.9431C23.902 18.0794 23.6439 19.2568 22.7407 20.0921C21.9955 20.7811 21.2667 21.5106 20.5744 22.2603C19.7389 23.1649 18.5604 23.424 17.4236 22.9528L16.16 22.4293C14.0026 21.536 11.6228 21.5373 9.4585 22.4336C7.29456 23.3301 5.6105 25.0119 4.71679 27.1694L2.46359 32.6099C0.615678 37.0714 2.74195 42.2047 7.20363 44.0532L8.46848 44.5768C9.60621 45.0482 10.2561 46.0642 10.2069 47.2951C10.1664 48.3133 10.1659 49.344 10.2054 50.3583C10.2533 51.5875 9.60324 52.6024 8.46681 53.0732L7.20325 53.5963C5.04581 54.4898 3.36417 56.1741 2.46749 58.338C1.57118 60.5022 1.5697 62.8821 2.46341 65.0395L4.71698 70.4797C6.56489 74.9414 11.6981 77.0681 16.1602 75.22L17.4232 74.6968C18.56 74.226 19.7374 74.4842 20.5727 75.3872C21.264 76.1344 21.9932 76.863 22.7402 77.5526C23.6448 78.388 23.9037 79.5662 23.4325 80.7034L22.9085 81.9681C21.0604 86.4297 23.1868 91.5632 27.6485 93.4113L33.0889 95.665C35.2463 96.5584 37.6261 96.5571 39.7904 95.6608C41.9543 94.7643 43.6384 93.0824 44.5321 90.925L45.0558 89.6607C45.527 88.523 46.543 87.872 47.774 87.9223C48.7921 87.9625 49.8225 87.9633 50.8374 87.9238C52.0676 87.8777 53.0815 88.5259 53.5525 89.6626L54.0755 90.925C54.969 93.0826 56.653 94.7645 58.8172 95.6609C59.9011 96.1098 61.0388 96.3344 62.1758 96.3344C63.3091 96.3344 64.4418 96.1113 65.5187 95.6654L70.9592 93.4116C73.1167 92.5181 74.7983 90.8339 75.6948 88.6699C76.5913 86.506 76.5928 84.1261 75.6991 81.9686L75.1765 80.7067C74.7057 79.5701 74.9639 78.3927 75.8672 77.5572C76.6145 76.8658 77.3434 76.1363 78.0334 75.389C78.8685 74.4842 80.0466 74.2253 81.1844 74.697L82.4476 75.2201C86.909 77.0679 92.0425 74.942 93.8908 70.4803L96.1443 65.0395C97.9921 60.5779 95.8658 55.4444 91.4045 53.5967ZM90.658 62.7672L88.4044 68.2078C87.8094 69.6443 86.1558 70.3289 84.7201 69.7339L83.4569 69.2108C80.0286 67.7906 76.1877 68.6348 73.6704 71.3608C73.0859 71.9942 72.4683 72.6121 71.8351 73.1978C69.1136 75.7147 68.2716 79.5543 69.6901 82.9792L70.2127 84.2411C70.8078 85.6776 70.1232 87.3303 68.6866 87.9254L63.246 90.1792C62.554 90.4659 61.788 90.464 61.0897 90.1751C60.391 89.8856 59.8486 89.345 59.5617 88.6529L59.0387 87.3902C57.6199 83.9655 54.3111 81.8491 50.6066 81.9903C49.7472 82.0237 48.8737 82.0233 48.0104 81.989C44.2996 81.8376 40.9897 83.9603 39.5698 87.3886L39.0461 88.6529C38.4513 90.0896 36.7992 90.7747 35.3618 90.1792L29.9214 87.9254C28.4847 87.3305 27.7999 85.6776 28.3949 84.2411L28.9189 82.9763C30.3385 79.5484 29.4948 75.7073 26.7685 73.19C26.1357 72.6058 25.518 71.9884 24.9323 71.3554C23.2273 69.5118 20.9156 68.5309 18.5364 68.5309C17.4039 68.5309 16.2558 68.7534 15.1511 69.2108L13.8881 69.7339C12.4516 70.3291 10.7985 69.6443 10.2036 68.2076L7.94999 62.7672C7.66328 62.0752 7.66477 61.3094 7.95407 60.6107C8.24338 59.912 8.78395 59.3694 9.47575 59.0829L10.7393 58.5598C14.164 57.1409 16.2836 53.8313 16.1392 50.1276C16.1058 49.2684 16.1064 48.3948 16.1407 47.5317C16.2886 43.8244 14.1692 40.5114 10.741 39.0912L9.47631 38.5675C8.03962 37.9724 7.35487 36.3195 7.94999 34.883L10.2036 29.4424C10.7983 28.0059 12.451 27.3206 13.8877 27.9159L15.1514 28.4394C18.5793 29.8592 22.4206 29.0151 24.9375 26.2892C25.5241 25.6538 26.1415 25.0359 26.773 24.4523C29.4946 21.9348 30.3365 18.0953 28.9178 14.6712L28.3953 13.4091C27.8001 11.9726 28.4849 10.3199 29.9216 9.7248L35.3619 7.47123C36.7985 6.8761 38.4513 7.56067 39.0463 8.99736L39.5692 10.2602C40.9879 13.6851 44.3048 15.8058 48.0017 15.6603H48.0021C48.8628 15.6269 49.7361 15.6271 50.5977 15.6616C54.3043 15.8117 57.6184 13.6899 59.038 10.2622L59.562 8.99755C60.157 7.56141 61.8097 6.87629 63.2464 7.47141L68.6869 9.72498C69.3789 10.0115 69.9195 10.5543 70.2088 11.2528C70.4981 11.9513 70.4996 12.7173 70.2129 13.4093L69.689 14.674C68.2692 18.102 69.113 21.9435 71.8396 24.4608C72.4731 25.0455 73.0909 25.6627 73.6758 26.2952C76.1929 29.0165 80.0324 29.8587 83.4571 28.4394L84.7202 27.9163C86.1569 27.3212 87.8096 28.0056 88.4046 29.4426L90.6581 34.8832C90.9448 35.5752 90.9434 36.3408 90.6541 37.0395C90.3647 37.7382 89.824 38.2806 89.1316 38.5675L87.869 39.0906C84.4445 40.5091 82.3247 43.8188 82.4689 47.5233C82.5025 48.3838 82.5021 49.2569 82.4676 50.1185C82.3197 53.8261 84.4391 57.1394 87.867 58.5589L89.1322 59.0831C90.5683 59.6778 91.2531 61.3307 90.658 62.7672ZM49.3039 25.7457C36.578 25.7457 26.2248 36.0989 26.2248 48.8247C26.2248 61.5506 36.578 71.904 49.3039 71.904C62.0298 71.904 72.3829 61.5506 72.3829 48.8247C72.3829 36.0989 62.0298 25.7457 49.3039 25.7457ZM49.3039 65.9657C39.8524 65.9657 32.1631 58.2762 32.1631 48.8247C32.1631 39.3732 39.8526 31.6839 49.3039 31.6839C58.7552 31.6839 66.4447 39.3734 66.4447 48.8247C66.4447 58.2764 58.7554 65.9657 49.3039 65.9657Z"/>
</mask>
<path d="M91.4045 53.5967L90.1393 53.0725C89.0017 52.6013 88.3519 51.5853 88.401 50.355C88.4417 49.3378 88.442 48.307 88.4023 47.2914C88.3546 46.062 89.0045 45.0469 90.1415 44.5761L91.4041 44.053C93.5618 43.1595 95.2436 41.4754 96.1401 39.3113C97.0364 37.1473 97.0381 34.7674 96.1443 32.6099L93.8908 27.1694C92.9973 25.0119 91.313 23.3303 89.1491 22.4336C86.9851 21.5375 84.6052 21.5354 82.4474 22.4295L81.1842 22.9527C80.0474 23.4238 78.8703 23.1653 78.0351 22.2623C77.3444 21.5158 76.6152 20.7872 75.8674 20.0969C74.9626 19.2615 74.7037 18.0835 75.1752 16.9459L75.6989 15.6814C76.5926 13.524 76.5913 11.144 75.695 8.97973C74.7985 6.81579 73.1167 5.13174 70.9592 4.23803L65.5187 1.98446C61.0568 0.136913 55.9237 2.26263 54.0758 6.72412L53.5518 7.98897C53.0808 9.12652 52.0668 9.77657 50.8343 9.72721C49.817 9.68657 48.7861 9.68601 47.7701 9.72591C46.5443 9.77676 45.5257 9.12392 45.055 7.9873L44.5321 6.7243C43.6386 4.56686 41.9543 2.88522 39.7904 1.98854C37.6265 1.09242 35.2463 1.09056 33.0889 1.98427L27.6485 4.23784C23.1868 6.08613 21.0606 11.2196 22.9085 15.6809L23.4312 16.9431C23.902 18.0794 23.6439 19.2568 22.7407 20.0921C21.9955 20.7811 21.2667 21.5106 20.5744 22.2603C19.7389 23.1649 18.5604 23.424 17.4236 22.9528L16.16 22.4293C14.0026 21.536 11.6228 21.5373 9.4585 22.4336C7.29456 23.3301 5.6105 25.0119 4.71679 27.1694L2.46359 32.6099C0.615678 37.0714 2.74195 42.2047 7.20363 44.0532L8.46848 44.5768C9.60621 45.0482 10.2561 46.0642 10.2069 47.2951C10.1664 48.3133 10.1659 49.344 10.2054 50.3583C10.2533 51.5875 9.60324 52.6024 8.46681 53.0732L7.20325 53.5963C5.04581 54.4898 3.36417 56.1741 2.46749 58.338C1.57118 60.5022 1.5697 62.8821 2.46341 65.0395L4.71698 70.4797C6.56489 74.9414 11.6981 77.0681 16.1602 75.22L17.4232 74.6968C18.56 74.226 19.7374 74.4842 20.5727 75.3872C21.264 76.1344 21.9932 76.863 22.7402 77.5526C23.6448 78.388 23.9037 79.5662 23.4325 80.7034L22.9085 81.9681C21.0604 86.4297 23.1868 91.5632 27.6485 93.4113L33.0889 95.665C35.2463 96.5584 37.6261 96.5571 39.7904 95.6608C41.9543 94.7643 43.6384 93.0824 44.5321 90.925L45.0558 89.6607C45.527 88.523 46.543 87.872 47.774 87.9223C48.7921 87.9625 49.8225 87.9633 50.8374 87.9238C52.0676 87.8777 53.0815 88.5259 53.5525 89.6626L54.0755 90.925C54.969 93.0826 56.653 94.7645 58.8172 95.6609C59.9011 96.1098 61.0388 96.3344 62.1758 96.3344C63.3091 96.3344 64.4418 96.1113 65.5187 95.6654L70.9592 93.4116C73.1167 92.5181 74.7983 90.8339 75.6948 88.6699C76.5913 86.506 76.5928 84.1261 75.6991 81.9686L75.1765 80.7067C74.7057 79.5701 74.9639 78.3927 75.8672 77.5572C76.6145 76.8658 77.3434 76.1363 78.0334 75.389C78.8685 74.4842 80.0466 74.2253 81.1844 74.697L82.4476 75.2201C86.909 77.0679 92.0425 74.942 93.8908 70.4803L96.1443 65.0395C97.9921 60.5779 95.8658 55.4444 91.4045 53.5967ZM90.658 62.7672L88.4044 68.2078C87.8094 69.6443 86.1558 70.3289 84.7201 69.7339L83.4569 69.2108C80.0286 67.7906 76.1877 68.6348 73.6704 71.3608C73.0859 71.9942 72.4683 72.6121 71.8351 73.1978C69.1136 75.7147 68.2716 79.5543 69.6901 82.9792L70.2127 84.2411C70.8078 85.6776 70.1232 87.3303 68.6866 87.9254L63.246 90.1792C62.554 90.4659 61.788 90.464 61.0897 90.1751C60.391 89.8856 59.8486 89.345 59.5617 88.6529L59.0387 87.3902C57.6199 83.9655 54.3111 81.8491 50.6066 81.9903C49.7472 82.0237 48.8737 82.0233 48.0104 81.989C44.2996 81.8376 40.9897 83.9603 39.5698 87.3886L39.0461 88.6529C38.4513 90.0896 36.7992 90.7747 35.3618 90.1792L29.9214 87.9254C28.4847 87.3305 27.7999 85.6776 28.3949 84.2411L28.9189 82.9763C30.3385 79.5484 29.4948 75.7073 26.7685 73.19C26.1357 72.6058 25.518 71.9884 24.9323 71.3554C23.2273 69.5118 20.9156 68.5309 18.5364 68.5309C17.4039 68.5309 16.2558 68.7534 15.1511 69.2108L13.8881 69.7339C12.4516 70.3291 10.7985 69.6443 10.2036 68.2076L7.94999 62.7672C7.66328 62.0752 7.66477 61.3094 7.95407 60.6107C8.24338 59.912 8.78395 59.3694 9.47575 59.0829L10.7393 58.5598C14.164 57.1409 16.2836 53.8313 16.1392 50.1276C16.1058 49.2684 16.1064 48.3948 16.1407 47.5317C16.2886 43.8244 14.1692 40.5114 10.741 39.0912L9.47631 38.5675C8.03962 37.9724 7.35487 36.3195 7.94999 34.883L10.2036 29.4424C10.7983 28.0059 12.451 27.3206 13.8877 27.9159L15.1514 28.4394C18.5793 29.8592 22.4206 29.0151 24.9375 26.2892C25.5241 25.6538 26.1415 25.0359 26.773 24.4523C29.4946 21.9348 30.3365 18.0953 28.9178 14.6712L28.3953 13.4091C27.8001 11.9726 28.4849 10.3199 29.9216 9.7248L35.3619 7.47123C36.7985 6.8761 38.4513 7.56067 39.0463 8.99736L39.5692 10.2602C40.9879 13.6851 44.3048 15.8058 48.0017 15.6603H48.0021C48.8628 15.6269 49.7361 15.6271 50.5977 15.6616C54.3043 15.8117 57.6184 13.6899 59.038 10.2622L59.562 8.99755C60.157 7.56141 61.8097 6.87629 63.2464 7.47141L68.6869 9.72498C69.3789 10.0115 69.9195 10.5543 70.2088 11.2528C70.4981 11.9513 70.4996 12.7173 70.2129 13.4093L69.689 14.674C68.2692 18.102 69.113 21.9435 71.8396 24.4608C72.4731 25.0455 73.0909 25.6627 73.6758 26.2952C76.1929 29.0165 80.0324 29.8587 83.4571 28.4394L84.7202 27.9163C86.1569 27.3212 87.8096 28.0056 88.4046 29.4426L90.6581 34.8832C90.9448 35.5752 90.9434 36.3408 90.6541 37.0395C90.3647 37.7382 89.824 38.2806 89.1316 38.5675L87.869 39.0906C84.4445 40.5091 82.3247 43.8188 82.4689 47.5233C82.5025 48.3838 82.5021 49.2569 82.4676 50.1185C82.3197 53.8261 84.4391 57.1394 87.867 58.5589L89.1322 59.0831C90.5683 59.6778 91.2531 61.3307 90.658 62.7672ZM49.3039 25.7457C36.578 25.7457 26.2248 36.0989 26.2248 48.8247C26.2248 61.5506 36.578 71.904 49.3039 71.904C62.0298 71.904 72.3829 61.5506 72.3829 48.8247C72.3829 36.0989 62.0298 25.7457 49.3039 25.7457ZM49.3039 65.9657C39.8524 65.9657 32.1631 58.2762 32.1631 48.8247C32.1631 39.3732 39.8526 31.6839 49.3039 31.6839C58.7552 31.6839 66.4447 39.3734 66.4447 48.8247C66.4447 58.2764 58.7554 65.9657 49.3039 65.9657Z" fill="#1355FF"/>
<path d="M91.4045 53.5967L90.1393 53.0725C89.0017 52.6013 88.3519 51.5853 88.401 50.355C88.4417 49.3378 88.442 48.307 88.4023 47.2914C88.3546 46.062 89.0045 45.0469 90.1415 44.5761L91.4041 44.053C93.5618 43.1595 95.2436 41.4754 96.1401 39.3113C97.0364 37.1473 97.0381 34.7674 96.1443 32.6099L93.8908 27.1694C92.9973 25.0119 91.313 23.3303 89.1491 22.4336C86.9851 21.5375 84.6052 21.5354 82.4474 22.4295L81.1842 22.9527C80.0474 23.4238 78.8703 23.1653 78.0351 22.2623C77.3444 21.5158 76.6152 20.7872 75.8674 20.0969C74.9626 19.2615 74.7037 18.0835 75.1752 16.9459L75.6989 15.6814C76.5926 13.524 76.5913 11.144 75.695 8.97973C74.7985 6.81579 73.1167 5.13174 70.9592 4.23803L65.5187 1.98446C61.0568 0.136913 55.9237 2.26263 54.0758 6.72412L53.5518 7.98897C53.0808 9.12652 52.0668 9.77657 50.8343 9.72721C49.817 9.68657 48.7861 9.68601 47.7701 9.72591C46.5443 9.77676 45.5257 9.12392 45.055 7.9873L44.5321 6.7243C43.6386 4.56686 41.9543 2.88522 39.7904 1.98854C37.6265 1.09242 35.2463 1.09056 33.0889 1.98427L27.6485 4.23784C23.1868 6.08613 21.0606 11.2196 22.9085 15.6809L23.4312 16.9431C23.902 18.0794 23.6439 19.2568 22.7407 20.0921C21.9955 20.7811 21.2667 21.5106 20.5744 22.2603C19.7389 23.1649 18.5604 23.424 17.4236 22.9528L16.16 22.4293C14.0026 21.536 11.6228 21.5373 9.4585 22.4336C7.29456 23.3301 5.6105 25.0119 4.71679 27.1694L2.46359 32.6099C0.615678 37.0714 2.74195 42.2047 7.20363 44.0532L8.46848 44.5768C9.60621 45.0482 10.2561 46.0642 10.2069 47.2951C10.1664 48.3133 10.1659 49.344 10.2054 50.3583C10.2533 51.5875 9.60324 52.6024 8.46681 53.0732L7.20325 53.5963C5.04581 54.4898 3.36417 56.1741 2.46749 58.338C1.57118 60.5022 1.5697 62.8821 2.46341 65.0395L4.71698 70.4797C6.56489 74.9414 11.6981 77.0681 16.1602 75.22L17.4232 74.6968C18.56 74.226 19.7374 74.4842 20.5727 75.3872C21.264 76.1344 21.9932 76.863 22.7402 77.5526C23.6448 78.388 23.9037 79.5662 23.4325 80.7034L22.9085 81.9681C21.0604 86.4297 23.1868 91.5632 27.6485 93.4113L33.0889 95.665C35.2463 96.5584 37.6261 96.5571 39.7904 95.6608C41.9543 94.7643 43.6384 93.0824 44.5321 90.925L45.0558 89.6607C45.527 88.523 46.543 87.872 47.774 87.9223C48.7921 87.9625 49.8225 87.9633 50.8374 87.9238C52.0676 87.8777 53.0815 88.5259 53.5525 89.6626L54.0755 90.925C54.969 93.0826 56.653 94.7645 58.8172 95.6609C59.9011 96.1098 61.0388 96.3344 62.1758 96.3344C63.3091 96.3344 64.4418 96.1113 65.5187 95.6654L70.9592 93.4116C73.1167 92.5181 74.7983 90.8339 75.6948 88.6699C76.5913 86.506 76.5928 84.1261 75.6991 81.9686L75.1765 80.7067C74.7057 79.5701 74.9639 78.3927 75.8672 77.5572C76.6145 76.8658 77.3434 76.1363 78.0334 75.389C78.8685 74.4842 80.0466 74.2253 81.1844 74.697L82.4476 75.2201C86.909 77.0679 92.0425 74.942 93.8908 70.4803L96.1443 65.0395C97.9921 60.5779 95.8658 55.4444 91.4045 53.5967ZM90.658 62.7672L88.4044 68.2078C87.8094 69.6443 86.1558 70.3289 84.7201 69.7339L83.4569 69.2108C80.0286 67.7906 76.1877 68.6348 73.6704 71.3608C73.0859 71.9942 72.4683 72.6121 71.8351 73.1978C69.1136 75.7147 68.2716 79.5543 69.6901 82.9792L70.2127 84.2411C70.8078 85.6776 70.1232 87.3303 68.6866 87.9254L63.246 90.1792C62.554 90.4659 61.788 90.464 61.0897 90.1751C60.391 89.8856 59.8486 89.345 59.5617 88.6529L59.0387 87.3902C57.6199 83.9655 54.3111 81.8491 50.6066 81.9903C49.7472 82.0237 48.8737 82.0233 48.0104 81.989C44.2996 81.8376 40.9897 83.9603 39.5698 87.3886L39.0461 88.6529C38.4513 90.0896 36.7992 90.7747 35.3618 90.1792L29.9214 87.9254C28.4847 87.3305 27.7999 85.6776 28.3949 84.2411L28.9189 82.9763C30.3385 79.5484 29.4948 75.7073 26.7685 73.19C26.1357 72.6058 25.518 71.9884 24.9323 71.3554C23.2273 69.5118 20.9156 68.5309 18.5364 68.5309C17.4039 68.5309 16.2558 68.7534 15.1511 69.2108L13.8881 69.7339C12.4516 70.3291 10.7985 69.6443 10.2036 68.2076L7.94999 62.7672C7.66328 62.0752 7.66477 61.3094 7.95407 60.6107C8.24338 59.912 8.78395 59.3694 9.47575 59.0829L10.7393 58.5598C14.164 57.1409 16.2836 53.8313 16.1392 50.1276C16.1058 49.2684 16.1064 48.3948 16.1407 47.5317C16.2886 43.8244 14.1692 40.5114 10.741 39.0912L9.47631 38.5675C8.03962 37.9724 7.35487 36.3195 7.94999 34.883L10.2036 29.4424C10.7983 28.0059 12.451 27.3206 13.8877 27.9159L15.1514 28.4394C18.5793 29.8592 22.4206 29.0151 24.9375 26.2892C25.5241 25.6538 26.1415 25.0359 26.773 24.4523C29.4946 21.9348 30.3365 18.0953 28.9178 14.6712L28.3953 13.4091C27.8001 11.9726 28.4849 10.3199 29.9216 9.7248L35.3619 7.47123C36.7985 6.8761 38.4513 7.56067 39.0463 8.99736L39.5692 10.2602C40.9879 13.6851 44.3048 15.8058 48.0017 15.6603H48.0021C48.8628 15.6269 49.7361 15.6271 50.5977 15.6616C54.3043 15.8117 57.6184 13.6899 59.038 10.2622L59.562 8.99755C60.157 7.56141 61.8097 6.87629 63.2464 7.47141L68.6869 9.72498C69.3789 10.0115 69.9195 10.5543 70.2088 11.2528C70.4981 11.9513 70.4996 12.7173 70.2129 13.4093L69.689 14.674C68.2692 18.102 69.113 21.9435 71.8396 24.4608C72.4731 25.0455 73.0909 25.6627 73.6758 26.2952C76.1929 29.0165 80.0324 29.8587 83.4571 28.4394L84.7202 27.9163C86.1569 27.3212 87.8096 28.0056 88.4046 29.4426L90.6581 34.8832C90.9448 35.5752 90.9434 36.3408 90.6541 37.0395C90.3647 37.7382 89.824 38.2806 89.1316 38.5675L87.869 39.0906C84.4445 40.5091 82.3247 43.8188 82.4689 47.5233C82.5025 48.3838 82.5021 49.2569 82.4676 50.1185C82.3197 53.8261 84.4391 57.1394 87.867 58.5589L89.1322 59.0831C90.5683 59.6778 91.2531 61.3307 90.658 62.7672ZM49.3039 25.7457C36.578 25.7457 26.2248 36.0989 26.2248 48.8247C26.2248 61.5506 36.578 71.904 49.3039 71.904C62.0298 71.904 72.3829 61.5506 72.3829 48.8247C72.3829 36.0989 62.0298 25.7457 49.3039 25.7457ZM49.3039 65.9657C39.8524 65.9657 32.1631 58.2762 32.1631 48.8247C32.1631 39.3732 39.8526 31.6839 49.3039 31.6839C58.7552 31.6839 66.4447 39.3734 66.4447 48.8247C66.4447 58.2764 58.7554 65.9657 49.3039 65.9657Z" stroke="#1355FF" stroke-width="2" mask="url(#path-1-outside-1_4_112)"/>
</svg>
